<svg version="1.2" xmlns="http://www.w3.org/2000/svg" viewBox="0 0 462 105" width="450" height="102">
	<title>logo-transparent</title>
	<style>
		.s0 { opacity: .12;fill: #000000 } 
		.s1 { opacity: .16;fill: #000000 } 
		.s2 { opacity: .19;fill: #000000 } 
		.s3 { opacity: .22;fill: #000000 } 
		.s4 { opacity: .32;fill: #000000 } 
		.s5 { opacity: .38;fill: #000000 } 
		.s6 { opacity: .56;fill: #000000 } 
		.s7 { opacity: .75;fill: #000000 } 
		.s8 { opacity: .93;fill: #000000 } 
		.s9 { opacity: 1;fill: #000000 } 
	</style>
	<g id="Background">
		<path id="Path 0" class="s0" d="m98.2 89.6c-0.2 0.5 0.4 1.6 1.3 2.4 1 1 1.7 1.1 1.8 0.4 0.1-0.6-0.5-1.7-1.3-2.4-0.9-0.7-1.7-0.9-1.8-0.4z"/>
		<path id="Path 1" class="s1" d="m299 23.7c1.4 0.2 3.9 0.2 5.5 0 1.6-0.2 0.5-0.4-2.5-0.4-3 0-4.4 0.2-3 0.4zm54 57c1.4 0.2 3.9 0.2 5.5 0 1.6-0.2 0.5-0.4-2.5-0.4-3 0-4.4 0.2-3 0.4z"/>
		<path id="Path 2" class="s2" d="m193 23.7c1.4 0.2 3.8 0.2 5.5 0 1.7-0.2 0.5-0.4-2.5-0.4-3 0-4.4 0.2-3 0.4zm55 0c1.9 0.2 4.6 0.2 6 0 1.4-0.2-0.2-0.4-3.5-0.4-3.3 0-4.4 0.2-2.5 0.4zm-238 25.3c0.8 0.5 2.5 1 3.8 1 1.2 0 2-0.5 1.7-1-0.3-0.5-2-1-3.8-1-2.4 0-2.8 0.3-1.7 1z"/>
		<path id="Path 3" class="s3" d="m354 23.7c1.4 0.2 3.9 0.2 5.5 0 1.6-0.2 0.5-0.4-2.5-0.4-3 0-4.4 0.2-3 0.4zm78 0c1.4 0.2 3.9 0.2 5.5 0 1.6-0.2 0.5-0.4-2.5-0.4-3 0-4.4 0.2-3 0.4z"/>
		<path id="Path 4" class="s4" d="m460.3 49.5c0 2.4 0.1 3 0.4 1.5 0.2-1.4 0.2-3.2 0-4-0.3-0.8-0.5 0.3-0.4 2.5z"/>
		<path id="Path 5" class="s5" d="m4.1 87c-0.6 1.1-1 2.2-0.8 2.5 0.1 0.3 1-0.4 2-1.5 0.9-1.1 1.3-2.2 0.8-2.5-0.5-0.3-1.4 0.4-2 1.5z"/>
		<path id="Path 6" class="s6" d="m32.5 39.7c-0.5 0.3-0.8 1-0.7 1.5 0.1 0.4 3.5 0.7 7.5 0.6l7.2-0.2c-9.3-0.6-12.3-1.2-12.6-1.7-0.3-0.5-0.9-0.6-1.4-0.2zm52.2 37.1c-1.4 0.6-0.3 1.9 5.8 6.9 4.1 3.5 7.5 6 7.5 5.5 0.1-0.4-2.5-3.5-5.7-6.9-4.4-4.6-6.2-6-7.6-5.5z"/>
		<path id="Path 7" class="s7" d="m9.4 78.4c-1.9 3.3-3.4 6.4-3.2 6.9 0.2 0.4 2.9-1.8 6-5l5.7-5.8c-4.9-2.2-5.2-2-8.5 3.9z"/>
		<path id="Path 8" class="s8" d="m15 48.5c0 0.3 1 0.9 2.3 1.4 1.2 0.4 3.2 1.1 4.5 1.5 1.7 0.5 2.2 0.2 2.2-1.4 0-1.7-0.7-2-4.5-2-2.5 0-4.5 0.2-4.5 0.5zm60.2 21.5c-1.1 1.8-0.7 2.3 3.3 4.5 2.5 1.4 4.7 2.5 5 2.5 0.3 0 0.5-0.7 0.5-1.5 0-0.8-1.5-2.8-3.3-4.5-1.7-1.6-3.4-3-3.8-3-0.3 0-1 0.9-1.7 2z"/>
		<path id="Path 9" fill-rule="evenodd" class="s9" d="m397.5 1.5l0.5 33c0.4 23.7 0.9 33.6 1.8 35.3 0.8 1.5 2.6 2.5 5.5 3 3.8 0.7 4.2 1 4.2 3.7 0 2.9-0.2 3-5 3.3-4.3 0.3-5.5 0-8.4-2.5-1.9-1.5-4-4.3-4.8-6-1-2.5-1.3-11.4-1.5-36.1-0.1-18.1 0.3-33.2 0.7-33.6 0.5-0.4 2.3-0.6 7-0.1zm-346.8 16.5c1.3 0 3.5 0.6 4.9 1.3 1.6 0.7 5.4 5.7 10 13.2 4 6.6 7.3 12.6 7.4 13.3 0 0.6-1 1.2-2.2 1.2-1.3 0-3.9-0.5-5.8-1-1.9-0.6-7.5-1.9-12.5-3-4.9-1.1-11.1-2-13.7-2-3.9 0-4.8-0.3-4.8-1.7 0.1-1 2.3-5.5 5-10 2.8-4.6 6-9 7.3-9.8 1.2-0.8 3.2-1.5 4.5-1.5zm61.7 6.5l0.5 18c0.4 15.8 0.8 18.5 2.6 22q2.1 4 6.5 6.3c2.7 1.4 6.2 2.2 8.9 2.2 2.7 0 6.3-0.9 8.9-2.2 2.5-1.3 5.4-3.6 6.5-5.1 1.9-2.6 2.1-4.7 3.1-41.2h7v55h-3.5c-3.1 0-3.5-0.3-4-5.5l-3.7 2.4c-2.1 1.4-6 3-8.8 3.7-2.7 0.6-7 0.9-9.5 0.7-2.5-0.3-6.3-1.5-8.5-2.6-2.2-1.1-5.5-3.6-7.2-5.6-1.8-2-3.8-4.8-4.5-6.3-0.6-1.6-1.3-10.5-1.6-21-0.3-10.1-0.2-19 0.2-19.9 0.5-1 1.7-1.4 7.1-0.9zm82.8-0.5c7.2 0 9.5 0.4 13.5 2.4 2.6 1.3 6.4 4.3 8.5 6.7 2.1 2.4 4.5 6.7 5.4 9.4 1.1 3.5 1.4 7.1 1.1 12-0.3 4.2-1.3 8.6-2.5 11-1.1 2.2-4.1 5.9-6.7 8.3-3.2 2.9-6.4 4.7-10.3 5.8-3.9 1.1-7.5 1.4-11 1-2.9-0.3-6.8-1.3-8.5-2.2-1.8-0.9-4.5-2.8-8.8-6.9v14.8c0 12.1-0.3 15-1.6 16.2-0.8 0.8-2.3 1.5-3.2 1.5-0.9 0.1-2.3-0.5-3-1.2-1-1-1.2-7.9-1-30.3 0.3-23.7 0.6-29.6 1.9-32.5 0.9-1.9 3.1-5.2 5-7.4 1.9-2.1 5.4-4.9 7.9-6.2 3.7-1.9 6.1-2.3 13.3-2.4zm-14.9 14.1c-1.6 1.9-3.6 5.6-4.3 8.4-1.1 4.1-1.1 6 0 10.5 0.8 3.4 2.4 6.8 4.3 8.9 1.7 1.9 4.9 4.2 7.1 5.2 2.2 1 5.6 1.9 7.5 1.9 1.9 0 5.1-0.5 7-1.2 1.9-0.6 4.6-2 6-2.9 1.4-1 3.6-3.8 5-6.1 1.9-3.4 2.5-5.7 2.5-10.8 0-5.2-0.5-7.4-2.6-11-1.9-3.3-4-5.2-8-7.3-3.3-1.7-6.9-2.7-9.4-2.7-2.2 0-5.8 0.9-8 1.9-2.2 1-5.4 3.3-7.1 5.2zm69.9-14.1c6.6 0 9.6 0.5 12.5 1.9 2 1 4.7 3 6 4.3 1.4 1.4 2.2 3.2 2 4.8-0.2 1.7-1 2.6-2.5 2.8-1.3 0.1-4.2-1.2-6.5-2.9-2.6-1.8-6.1-3.2-8.8-3.6-2.5-0.3-6.2-0.1-8.2 0.6-2.1 0.6-4.5 2.1-5.3 3.4-0.9 1.3-1.3 3.3-1 5 0.3 1.7 1.6 3.2 3.5 4.2 1.7 0.8 6.9 2.4 11.8 3.5 5.7 1.3 10.1 3 13 5 2.9 2.1 4.5 4.2 5.3 6.8 0.6 2 0.9 5.4 0.5 7.5-0.4 2.4-1.9 5-4.1 7.2q-3.5 3.5-9.2 5.1c-3.7 1.1-7.8 1.5-11.3 1.2-3-0.3-7.7-1.5-10.5-2.7-2.7-1.2-6-3.2-7.3-4.4-1.2-1.2-2.2-2.9-2.2-3.7 0-0.8 0.5-2.1 1.2-2.7 0.7-0.7 2.1-1.3 3.3-1.3 1.1-0.1 2.9 0.9 4 2 1.1 1.2 4 2.8 6.5 3.7 3.1 1.1 6.3 1.5 10 1.1 3-0.3 6.5-1.1 7.7-1.9 1.3-0.8 2.7-2.6 3.3-4.1 0.8-2.1 0.6-3.4-0.5-5.3-0.8-1.4-2.7-3.1-4.2-3.9-1.6-0.8-5.7-1.9-9.3-2.6-3.6-0.6-8.5-2.1-11-3.4-2.5-1.2-5.5-3.8-6.8-5.7-1.2-1.9-2.2-4.9-2.2-6.6 0-1.8 0.8-4.9 1.8-6.9 1-2.1 3.4-4.7 5.7-6 3.4-2 5.4-2.4 12.8-2.4zm52.7 0.2c8.8 0.3 9.8 0.5 14.3 3.6 2.6 1.7 5.3 4.3 6 5.7 1 2 0.9 2.7-0.3 4-0.8 0.9-2.1 1.6-2.7 1.5-0.7 0-3.4-1.6-6-3.5-2.7-2-6.4-3.8-8.3-4.1-1.9-0.4-5.4-0.4-7.7 0-3.2 0.4-5.4 1.7-8.6 4.9-3.3 3.2-4.6 5.5-5.6 9.7-0.8 3-1.1 7.2-0.7 9.3 0.3 2 1.5 5.5 2.6 7.7 1.1 2.3 3.8 5.2 6.2 6.8 2.7 1.7 5.9 2.8 9.2 3.1 4 0.3 6.3-0.1 10.6-2.2 3-1.5 6.5-2.7 7.8-2.7q2.2 0 2.8 2.3c0.5 1.7-0.1 2.9-2.5 5-1.7 1.5-5.5 3.4-8.3 4.2-2.9 0.8-6.9 1.5-8.8 1.5-1.9 0-5.7-0.6-8.5-1.4-2.8-0.8-7-3.2-9.5-5.4-2.5-2.1-5.6-6.1-6.9-8.8-2.1-4.1-2.5-6.3-2.4-13.9 0-6.6 0.5-9.9 1.8-12.5 1-1.9 2.7-4.8 3.8-6.4 1.2-1.6 4.4-4.2 7.1-5.8 4.8-2.7 5.7-2.9 14.6-2.6zm53.3-0.2c7.2 0 9.5 0.4 13.5 2.4 2.6 1.3 6.2 4 8 6 1.7 2 4 5.1 5 6.9 1.4 2.7 1.7 6 1.7 40.2h-3.5c-3.4 0-3.5-0.1-4.5-8.7l-2.5 2.7c-1.4 1.5-4.2 3.6-6.2 4.6-2.8 1.4-5.9 1.9-12 1.9-6.6 0-9.2-0.5-12.7-2.3-2.5-1.2-6.2-4.2-8.3-6.7-2.1-2.5-4.6-6.7-5.5-9.5-1-3.2-1.4-7.3-1.2-11.5 0.3-4.2 1.3-8.1 2.8-11 1.2-2.5 3.5-5.8 4.9-7.3 1.5-1.6 4.7-3.9 7.2-5.2 3.7-2 6-2.4 13.3-2.5zm-13.6 12.8c-1.6 1.5-3.5 3.8-4.2 5.2-0.7 1.4-1.6 4.3-1.9 6.5-0.4 2.2-0.2 6 0.3 8.5 0.6 2.5 2.1 6 3.3 7.8 1.3 1.8 4.6 4.4 7.3 5.7 2.8 1.4 6.6 2.5 8.5 2.5 1.9 0 5.1-0.5 7-1.2 1.9-0.6 4.6-2 6-2.9 1.4-1 3.5-3.5 4.7-5.6 1.2-2.1 2.5-5.8 2.9-8.3 0.3-2.5 0.1-6.3-0.5-8.5-0.6-2.2-2.1-5.5-3.4-7.3-1.2-1.8-4.4-4.4-7.2-5.7-2.9-1.5-6.6-2.5-9-2.5-2.2 0.1-5.6 0.8-7.5 1.6-1.9 0.8-4.8 2.7-6.3 4.2zm92.1-12.8c6 0 9.2 0.5 12 1.9 2 1 5.2 3.5 7 5.5 1.7 2 3.9 5.3 4.7 7.4 0.9 2 1.5 6.5 1.5 16.2h-22c-16.9 0-22 0.3-22 1.3 0 0.6 0.9 3 1.9 5.2 0.9 2.2 3.1 5.1 4.7 6.5 1.6 1.4 4.7 3.2 6.9 3.9 2.6 0.9 5.9 1.1 9.5 0.7 3-0.3 7-1.5 8.8-2.6 1.7-1.1 4.1-2 5.2-2 1.1 0 2.4 0.8 3 1.8 0.6 1.1 0.5 2.3-0.4 3.7-0.7 1.1-3.7 3.1-6.7 4.4-3 1.3-7.6 2.6-10.4 2.8-3 0.4-7.2-0.1-10.5-1-3.9-1.1-7.1-3-10.8-6.4-3.9-3.5-5.9-6.3-7.4-10.3-1.5-4.3-1.9-7.2-1.6-13 0.3-4.9 1.2-8.9 2.5-11.5 1.1-2.2 3.2-5.3 4.5-7 1.4-1.6 4.5-4 6.9-5.2 3.5-1.8 6.1-2.3 12.7-2.3zm-11.9 11.2c-0.8 0.7-2.3 2.4-3.2 3.8-0.9 1.4-2.1 4-2.7 5.8l-1 3.2h37c-1-4.3-1.9-6.7-2.6-8.2-0.8-1.6-3.1-4-5.1-5.5-2.8-2.1-5-2.9-9.2-3.1-3.4-0.1-6.8 0.3-8.6 1.2-1.6 0.8-3.7 2.1-4.6 2.8zm-398.7 12.6l6.6 0.7c3.7 0.4 9.4 1.4 12.7 2.2 3.3 0.8 9.2 2.9 13 4.7 3.9 1.8 9.8 5.1 13.3 7.4 3.4 2.3 6.2 4.9 6.2 5.7 0 0.8-0.6 1.7-1.2 2-0.7 0.3-4.2-0.8-7.8-2.4-3.6-1.6-9.2-3.4-12.5-4-3.3-0.6-7.9-1.1-10.2-1.1-2.5 0-7.4 1.3-11.5 3-4 1.7-8.8 4.2-10.5 5.5-1.8 1.4-4.2 2.5-5.3 2.5-1.1 0-2.2-0.7-2.5-1.5-0.3-0.8 1.7-5.2 4.5-9.7 3-5.1 5-9.6 5.1-11.6z"/>
	</g>
</svg>