<?xml version="1.0" encoding="UTF-8"?>
<svg version="1.1" xmlns="http://www.w3.org/2000/svg" width="462" height="105">
<path d="M0 0 C5.00736728 4.69377458 8.31617138 10.85673422 8.86328125 17.75390625 C9.07527794 27.91858971 7.98060669 35.39717651 1.0625 43.125 C-4.56180794 48.28932737 -11.38626531 50.85531262 -19 51.1875 C-27.06754901 50.75453673 -32.41046921 47.96363135 -38.375 42.75 C-38.39481934 43.58249268 -38.41463867 44.41498535 -38.43505859 45.27270508 C-38.51320742 48.364765 -38.59990206 51.45643383 -38.69238281 54.5480957 C-38.74944092 56.5429536 -38.79664442 58.5380854 -38.84375 60.53320312 C-38.90175781 62.41362305 -38.90175781 62.41362305 -38.9609375 64.33203125 C-38.9923584 65.48936768 -39.0237793 66.6467041 -39.05615234 67.83911133 C-39.375 70.75 -39.375 70.75 -41.375 73.75 C-44.5 73.9375 -44.5 73.9375 -47.375 73.75 C-48.66001201 71.17997598 -48.52312319 69.31122573 -48.55200195 66.43334961 C-48.56483719 65.32136703 -48.57767242 64.20938446 -48.59089661 63.06370544 C-48.59828354 61.85545609 -48.60567047 60.64720673 -48.61328125 59.40234375 C-48.621353 58.16134415 -48.62942474 56.92034454 -48.63774109 55.64173889 C-48.65159603 53.00794737 -48.66260674 50.37428158 -48.67016602 47.74047852 C-48.67899714 45.05079288 -48.69979836 42.36162874 -48.73168945 39.67211914 C-48.77445105 35.79036907 -48.79055094 31.90930043 -48.80078125 28.02734375 C-48.81828934 26.83326401 -48.83579742 25.63918427 -48.85383606 24.40892029 C-48.82744045 14.17710202 -46.2849406 6.99606262 -39.3046875 -0.5234375 C-27.93195416 -10.69904102 -11.38293963 -9.2117493 0 0 Z M-37.18359375 9.90625 C-41.0624941 15.90900726 -40.70433013 22.01398263 -39.375 28.75 C-37.19157808 35.05766332 -32.65368078 38.85181639 -27 42.125 C-20.23091412 43.73668711 -14.51663826 43.17514441 -8.375 39.75 C-3.9882139 35.96141201 -0.21715176 31.64506234 0.625 25.75 C1.11349032 18.42264514 0.08011355 12.83642846 -4.5625 7 C-10.02685202 2.62851838 -15.00483913 -0.00985368 -22.14453125 0.37109375 C-28.59634953 1.46711192 -33.21156063 4.79780413 -37.18359375 9.90625 Z " fill="#FDFDFD" transform="translate(215.375,30.25)"/>
<path d="M0 0 C5.48543179 5.16406306 8.47877857 10.66530717 8.75439453 18.24682617 C8.76096347 19.65802554 8.76178042 21.06925968 8.7578125 22.48046875 C8.75876923 23.22710281 8.75972595 23.97373688 8.76071167 24.74299622 C8.76139044 26.31556279 8.75955729 27.88813221 8.75537109 29.46069336 C8.74999588 31.87685356 8.75533784 34.29282977 8.76171875 36.70898438 C8.76105836 38.23697958 8.75977801 39.76497467 8.7578125 41.29296875 C8.75983673 42.01896774 8.76186096 42.74496674 8.76394653 43.4929657 C8.73996698 48.57253302 8.73996698 48.57253302 7.625 49.6875 C4.625 49.8125 4.625 49.8125 1.625 49.6875 C-0.34322886 47.71927114 -0.03748381 44.33941291 -0.375 41.6875 C-0.7875 42.08582031 -1.2 42.48414063 -1.625 42.89453125 C-8.09543092 48.8305739 -14.01798387 51.3127407 -22.8671875 50.9609375 C-31.61715247 50.00689147 -37.5422708 46.25662587 -43.375 39.6875 C-48.55217839 31.67214392 -49.0876578 24.01313636 -48.375 14.6875 C-46.56399308 7.31255614 -41.66677654 0.51060776 -35.3203125 -3.6640625 C-23.39549096 -9.91896889 -10.40427119 -8.55462298 0 0 Z M-37.18359375 9.84765625 C-40.70693308 15.28861632 -40.73018063 20.74178689 -39.9609375 26.97265625 C-38.79045921 32.39587235 -36.67563295 36.04132284 -32.13671875 39.2890625 C-26.60630341 42.3682051 -21.6641406 43.75325753 -15.375 42.6875 C-9.04854478 40.68412251 -5.34090534 37.56614711 -1.625 32.125 C1.06773943 26.87415811 1.47356817 21.31563006 0.12890625 15.56640625 C-1.95144069 9.34887218 -5.43175536 5.62343183 -11.125 2.375 C-21.15614279 -2.24460523 -30.64502623 1.42056514 -37.18359375 9.84765625 Z " fill="#FDFDFD" transform="translate(376.375,30.3125)"/>
<path d="M0 0 C6.8636431 5.72164475 10.35174934 12.24323347 11.203125 21.1171875 C11.26803052 23.72422599 11.17642448 25.64715104 10 28 C-4.52 28 -19.04 28 -34 28 C-29.93343278 38.46755617 -29.93343278 38.46755617 -21.75 44.3125 C-14.27757911 46.18060522 -7.92000067 45.14545485 -1 42 C-0.67 41.67 -0.34 41.34 0 41 C1.66617115 40.95936168 3.33388095 40.957279 5 41 C5.66 42.32 6.32 43.64 7 45 C2.23757039 50.91198158 -4.16636597 53.35167353 -11.62109375 54.3515625 C-20.28764391 54.6490104 -26.6365214 52.46986294 -33.3125 46.9375 C-40.10014526 40.37153522 -42.15531529 34.35717599 -42.5 25 C-42.21288895 16.18569076 -39.76246559 8.98105434 -33.7109375 2.46875 C-24.21012502 -5.68719861 -10.59448028 -6.41199377 0 0 Z M-31 12 C-31.99 14.97 -32.98 17.94 -34 21 C-21.79 21 -9.58 21 3 21 C1.02977302 13.11909207 -0.17558876 9.66819389 -6.6875 5.125 C-16.2409581 1.88042932 -24.61048668 4.05628073 -31 12 Z " fill="#FDFDFD" transform="translate(450,27)"/>
<path d="M0 0 C3 0.125 3 0.125 4 1.125 C4.12246406 3.38319173 4.1798632 5.64495353 4.2109375 7.90625 C4.2390458 9.32032329 4.26771043 10.7343856 4.296875 12.1484375 C4.33784257 14.37531762 4.37472488 16.60200167 4.40136719 18.82910156 C4.31358529 32.44858976 4.31358529 32.44858976 9.875 44.5625 C15.20778645 48.48366651 20.53416876 48.93077228 27 48.125 C31.64016738 46.60952446 35.64127147 44.56495959 38 40.125 C39.3196422 36.21949307 39.20663258 32.19058623 39.28125 28.11328125 C39.29965942 27.34445114 39.31806885 26.57562103 39.33703613 25.78349304 C39.41559646 22.50057635 39.48372061 19.21746543 39.55224609 15.93432617 C39.60382279 13.53553664 39.66109977 11.13693123 39.71875 8.73828125 C39.73232544 7.99040848 39.74590088 7.24253571 39.7598877 6.47200012 C39.88711822 1.23788178 39.88711822 1.23788178 41 0.125 C44 0 44 0 47 0.125 C48.68012342 1.80512342 48.12747339 3.87587192 48.12939453 6.1796875 C48.13254669 7.25750488 48.13569885 8.33532227 48.13894653 9.44580078 C48.1369223 10.61868652 48.13489807 11.79157227 48.1328125 13 C48.13376923 14.1947998 48.13472595 15.38959961 48.13571167 16.62060547 C48.13639371 19.1526698 48.13453778 21.68473588 48.13037109 24.21679688 C48.12502321 28.1081126 48.13031533 31.99931289 48.13671875 35.890625 C48.13605797 38.34375026 48.13477682 40.79687544 48.1328125 43.25 C48.13483673 44.42288574 48.13686096 45.59577148 48.13894653 46.80419922 C48.13421829 48.42092529 48.13421829 48.42092529 48.12939453 50.0703125 C48.12859894 51.02437988 48.12780334 51.97844727 48.12698364 52.96142578 C48 55.125 48 55.125 47 56.125 C45.00041636 56.16580783 42.99954746 56.16754356 41 56.125 C40.34 54.475 39.68 52.825 39 51.125 C37.7315625 52.053125 37.7315625 52.053125 36.4375 53 C30.16800529 57.12120631 23.33872803 57.96966675 16 57.125 C7.92695343 55.30520584 2.54009443 51.00190775 -2 44.125 C-4.07606886 39.1307583 -4.27968514 34.79028618 -4.23046875 29.48046875 C-4.23001053 28.67007645 -4.22955231 27.85968414 -4.2290802 27.0247345 C-4.2260735 25.32287113 -4.21823495 23.62101012 -4.20581055 21.91918945 C-4.18743643 19.30345018 -4.18530188 16.68806301 -4.18554688 14.07226562 C-4.18063553 12.41666358 -4.1748089 10.76106395 -4.16796875 9.10546875 C-4.16685593 8.32012253 -4.1657431 7.53477631 -4.16459656 6.72563171 C-4.10662433 0.17110935 -4.10662433 0.17110935 0 0 Z " fill="#FDFDFD" transform="translate(109,23.875)"/>
<path d="M0 0 C4.83214649 3.76907426 4.83214649 3.76907426 5.375 7.75 C5 10 5 10 4 11 C1.29687307 11.4770224 -0.41687674 11.35422181 -2.78125 9.91796875 C-3.98774584 9.03098982 -5.17889125 8.12264519 -6.3515625 7.19140625 C-10.42026671 4.25075511 -15.20867627 4.55106848 -20 5 C-23.48864806 5.99128684 -23.48864806 5.99128684 -26 8 C-27.24423499 11.31795996 -27.12906176 12.61281473 -26 16 C-23.8578585 17.15469838 -23.8578585 17.15469838 -21.1875 18 C-20.19492188 18.34289062 -19.20234375 18.68578125 -18.1796875 19.0390625 C-15.07465196 19.97743933 -11.98166538 20.68955711 -8.8125 21.375 C-2.29776596 22.93379202 2.91776783 25.61637273 6.5 31.4375 C7.63187841 37.23837684 7.44474521 41.44853031 4.26171875 46.4296875 C0.56485635 51.03073606 -4.36832933 52.89213036 -10 54 C-18.62704858 54.88827645 -26.74271653 53.58266615 -34.0234375 48.62109375 C-35.6875 47.25 -35.6875 47.25 -38 45 C-37.125 40.125 -37.125 40.125 -36 39 C-32.55650687 38.52173707 -31.32516976 38.75612268 -28.5 40.875 C-27.675 41.57625 -26.85 42.2775 -26 43 C-19.6874924 46.03935551 -12.49712975 45.90600441 -5.8125 44 C-4.4203125 43.505 -4.4203125 43.505 -3 43 C-2.05728998 39.74360341 -2.05728998 39.74360341 -2 36 C-5.84083629 30.87888494 -9.93372003 29.78867779 -15.875 28.4375 C-23.12647048 26.7358697 -29.32205691 25.02126913 -34.4375 19.25 C-36.64169397 14.66527654 -36.97033115 10.83061099 -35.33984375 6.07421875 C-32.92723275 1.19677573 -29.87296185 -0.73755343 -25 -3 C-16.37629606 -5.64389277 -7.79630067 -4.31881404 0 0 Z " fill="#FDFDFD" transform="translate(266,27)"/>
<path d="M0 0 C3.23083027 2.22657574 5.38054517 3.70886736 6.88671875 7.390625 C6.76171875 9.640625 6.76171875 9.640625 4.76171875 11.640625 C0.39891556 11.51597348 -2.27724564 9.37500566 -5.58984375 6.796875 C-9.70911559 3.90752793 -14.42944901 4.2078301 -19.23828125 4.640625 C-24.95678583 6.35617637 -27.90870951 8.69383271 -31.23828125 13.640625 C-34.39064024 21.74669097 -33.96065614 28.52395115 -30.58203125 36.3671875 C-27.93921251 40.83846804 -24.13259868 43.00918586 -19.23828125 44.640625 C-12.92946911 45.32417303 -8.54863723 44.69578984 -3.06640625 41.53125 C-0.43301384 40.24831524 1.89350417 40.35380354 4.76171875 40.640625 C5.25671875 43.115625 5.25671875 43.115625 5.76171875 45.640625 C-0.13560553 51.23552239 -6.06489898 53.72371849 -14.23828125 54.015625 C-23.03176737 53.66225461 -28.89707885 50.88210703 -35.2890625 44.8359375 C-41.47360978 37.87057563 -42.59400657 30.31379175 -42.51953125 21.29296875 C-41.92148027 13.52661223 -38.88964648 7.04081844 -33.23828125 1.640625 C-22.46530749 -5.46413189 -11.30601209 -6.86647855 0 0 Z " fill="#FDFDFD" transform="translate(317.23828125,27.359375)"/>
<path d="M0 0 C32.13592217 -0.95642626 54.87553074 5.86916877 78.68359375 27.8046875 C84.1202389 32.95712354 89.31754527 38.14693159 94 44 C93.505 44.99 93.505 44.99 93 46 C92.22398438 45.24976563 91.44796875 44.49953125 90.6484375 43.7265625 C76.10234954 29.86153941 59.70960635 16.51421621 38.63671875 15.90234375 C24.06525417 16.60437671 12.69182813 23.56708472 2.703125 33.9921875 C-0.80163225 38.1239426 -3.90640515 42.55647286 -7 47 C-7.33 46.34 -7.66 45.68 -8 45 C-6.78137339 42.62622891 -5.508022 40.39202707 -4.1171875 38.12109375 C-3.50026535 37.09194603 -3.50026535 37.09194603 -2.87088013 36.04200745 C-1.54643195 33.83588092 -0.21112114 31.63657277 1.125 29.4375 C2.85936668 26.56275847 4.58964972 23.68556611 6.3203125 20.80859375 C6.7350885 20.12107025 7.1498645 19.43354675 7.57720947 18.72518921 C10.49688888 13.87504792 13.30135923 8.97736857 16 4 C10.72 3.34 5.44 2.68 0 2 C0 1.34 0 0.68 0 0 Z " fill="#F8F8F8" transform="translate(8,48)"/>
<path d="M0 0 C3 0.125 3 0.125 4 1.125 C4.11317824 3.0923234 4.15684378 5.06367457 4.17358398 7.03417969 C4.18707382 8.29929382 4.20056366 9.56440796 4.21446228 10.86785889 C4.21952223 11.54851158 4.22458218 12.22916428 4.22979546 12.93044281 C4.24617555 15.05749772 4.26941444 17.18437371 4.29469299 19.31134033 C4.36553304 25.36046448 4.42546733 31.40966404 4.47680664 37.45898438 C4.50866574 41.15607914 4.54996564 44.85297259 4.59700203 48.54990387 C4.61298907 49.95802421 4.62532585 51.36619099 4.63390923 52.77437592 C4.64611355 54.74907236 4.67130328 56.72367551 4.69702148 58.69824219 C4.70732895 59.82107605 4.71763641 60.94390991 4.72825623 62.10076904 C5.00538819 65.18496505 5.586736 67.37794504 7 70.125 C9.14598502 71.36134658 9.14598502 71.36134658 11.625 71.9375 C12.44226563 72.17082031 13.25953125 72.40414062 14.1015625 72.64453125 C15.04128906 72.88236328 15.04128906 72.88236328 16 73.125 C16.042721 74.79111905 16.04063832 76.45882885 16 78.125 C14.37606095 79.74893905 12.61552751 79.45081207 10.375 79.5625 C5.39365068 79.51968038 2.96944392 78.26965096 -0.625 74.92578125 C-3.86570854 70.68155784 -4.24925663 66.65281048 -4.24291992 61.42285156 C-4.24481827 60.77023849 -4.24671661 60.11762543 -4.24867249 59.44523621 C-4.25235835 57.30190781 -4.24171135 55.15892293 -4.23046875 53.015625 C-4.22927605 51.52301066 -4.22882398 50.03039556 -4.2290802 48.53778076 C-4.22751936 45.41755441 -4.21925728 42.29744344 -4.20581055 39.17724609 C-4.18876223 35.16987149 -4.18499809 31.16262285 -4.18575573 27.15521622 C-4.18548449 24.07725819 -4.18001175 20.99932791 -4.17275429 17.92137909 C-4.16956477 16.44293172 -4.16759955 14.9644812 -4.16686058 13.48603058 C-4.16470333 11.42715532 -4.15597437 9.36841648 -4.14526367 7.30957031 C-4.14145187 6.13662415 -4.13764008 4.96367798 -4.13371277 3.75518799 C-3.94303589 0.00449124 -3.80111177 0.15837966 0 0 Z " fill="#FDFDFD" transform="translate(394,0.875)"/>
<path d="M0 0 C3.74517081 2.55701255 5.99264182 5.12866688 8.26171875 9.02734375 C8.82310547 9.98447266 9.38449219 10.94160156 9.96289062 11.92773438 C10.81657227 13.41756836 10.81657227 13.41756836 11.6875 14.9375 C12.26822266 15.92685547 12.84894531 16.91621094 13.44726562 17.93554688 C15.93979017 22.22038386 18.24769067 26.35270684 20 31 C18.96101563 30.73445313 17.92203125 30.46890625 16.8515625 30.1953125 C13.22825226 29.27413193 9.60047636 28.37230856 5.96923828 27.48291016 C4.41446577 27.10163815 2.86123734 26.71406975 1.30859375 26.32421875 C-6.6680003 24.50694254 -14.85400638 24.35910413 -23 24 C-21.37847028 19.49960469 -19.12298076 15.53152303 -16.6875 11.4375 C-16.30916016 10.77814453 -15.93082031 10.11878906 -15.54101562 9.43945312 C-11.67815822 2.93599607 -8.11754161 -1.1596488 0 0 Z " fill="#FBFBFB" transform="translate(55,18)"/>
<path d="" fill="#010101" transform="translate(0,0)"/>
</svg>
